<svg width="32" height="32" viewBox="0 0 32 32" xmlns="http://www.w3.org/2000/svg">
  <rect width="32" height="32" fill="#0d0d1a" rx="6"/>
  <!-- Table -->
  <circle cx="16" cy="16" r="9" fill="#111122" stroke="#c9a84c" stroke-width="0.8" opacity="0.95"/>
  <!-- Seats -->
  <circle cx="16" cy="5"  r="2.5" fill="#1a1a2e" stroke="#c9a84c" stroke-width="0.8"/>
  <circle cx="25.6" cy="11.5" r="2.5" fill="#1a1a2e" stroke="#c9a84c" stroke-width="0.8"/>
  <circle cx="22"   cy="23.5" r="2.5" fill="#1a1a2e" stroke="#c9a84c" stroke-width="0.8"/>
  <circle cx="10"   cy="23.5" r="2.5" fill="#1a1a2e" stroke="#c9a84c" stroke-width="0.8"/>
  <circle cx="6.4"  cy="11.5" r="2.5" fill="#1a1a2e" stroke="#c9a84c" stroke-width="0.8"/>
  <!-- Flame outer -->
  <path d="M16 22 C13.5 19 12 16 12.8 13 C13.4 11 15 10 16 8.5 C17 10 18.6 11 19.2 13 C20 16 18.5 19 16 22Z" fill="#c9a84c" opacity="0.9"/>
  <!-- Flame inner -->
  <path d="M16 20.5 C14.2 18 13.2 15.5 14 13 C14.5 11.5 15.2 10.8 16 10 C16.8 10.8 17.5 11.5 18 13 C18.8 15.5 17.8 18 16 20.5Z" fill="#fff8e0" opacity="0.95"/>
</svg>
